<?xml version="1.0" encoding="UTF-8" standalone="no"?>
<!-- Created with Inkscape (http://www.inkscape.org/) -->

<svg
   xmlns:dc="http://purl.org/dc/elements/1.1/"
   xmlns:cc="http://creativecommons.org/ns#"
   xmlns:rdf="http://www.w3.org/1999/02/22-rdf-syntax-ns#"
   xmlns:svg="http://www.w3.org/2000/svg"
   xmlns="http://www.w3.org/2000/svg"
   xmlns:sodipodi="http://sodipodi.sourceforge.net/DTD/sodipodi-0.dtd"
   xmlns:inkscape="http://www.inkscape.org/namespaces/inkscape"
   width="300"
   height="200"
   viewBox="0 0 299.99998 199.99999"
   id="svg2"
   version="1.1"
   inkscape:version="0.91 r13725"
   sodipodi:docname="icons.svg"
   inkscape:export-filename="/Users/danirod/Desarrollo/rectball/android/assets/ui/icons@2x.png"
   inkscape:export-xdpi="360"
   inkscape:export-ydpi="360">
  <defs
     id="defs4">
    <marker
       inkscape:isstock="true"
       style="overflow:visible"
       id="marker4933"
       refX="0.0"
       refY="0.0"
       orient="auto"
       inkscape:stockid="TriangleInS">
      <path
         transform="scale(-0.2)"
         style="fill-rule:evenodd;stroke:#ffffff;stroke-width:1pt;stroke-opacity:1;fill:#ffffff;fill-opacity:1"
         d="M 5.77,0.0 L -2.88,5.0 L -2.88,-5.0 L 5.77,0.0 z "
         id="path4935" />
    </marker>
    <marker
       inkscape:stockid="TriangleInS"
       orient="auto"
       refY="0.0"
       refX="0.0"
       id="TriangleInS"
       style="overflow:visible"
       inkscape:isstock="true"
       inkscape:collect="always">
      <path
         id="path4300"
         d="M 5.77,0.0 L -2.88,5.0 L -2.88,-5.0 L 5.77,0.0 z "
         style="fill-rule:evenodd;stroke:#ffffff;stroke-width:1pt;stroke-opacity:1;fill:#ffffff;fill-opacity:1"
         transform="scale(-0.2)" />
    </marker>
    <marker
       inkscape:stockid="Arrow2Mstart"
       orient="auto"
       refY="0.0"
       refX="0.0"
       id="Arrow2Mstart"
       style="overflow:visible"
       inkscape:isstock="true">
      <path
         id="path4185"
         style="fill-rule:evenodd;stroke-width:0.625;stroke-linejoin:round;stroke:#000000;stroke-opacity:1;fill:#ffffff;fill-opacity:1"
         d="M 8.7185878,4.0337352 L -2.2072895,0.016013256 L 8.7185884,-4.0017078 C 6.9730900,-1.6296469 6.9831476,1.6157441 8.7185878,4.0337352 z "
         transform="scale(0.6) translate(0,0)" />
    </marker>
    <marker
       inkscape:stockid="Arrow1Lstart"
       orient="auto"
       refY="0.0"
       refX="0.0"
       id="Arrow1Lstart"
       style="overflow:visible"
       inkscape:isstock="true">
      <path
         id="path4161"
         d="M 0.0,0.0 L 5.0,-5.0 L -12.5,0.0 L 5.0,5.0 L 0.0,0.0 z "
         style="fill-rule:evenodd;stroke:#ffffff;stroke-width:1pt;stroke-opacity:1;fill:#ffffff;fill-opacity:1"
         transform="scale(0.8) translate(12.5,0)" />
    </marker>
    <marker
       inkscape:stockid="Arrow2Mend"
       orient="auto"
       refY="0.0"
       refX="0.0"
       id="Arrow2Mend"
       style="overflow:visible;"
       inkscape:isstock="true">
      <path
         id="path4188"
         style="fill-rule:evenodd;stroke-width:0.625;stroke-linejoin:round;stroke:#ffffff;stroke-opacity:1;fill:#ffffff;fill-opacity:1"
         d="M 8.7185878,4.0337352 L -2.2072895,0.016013256 L 8.7185884,-4.0017078 C 6.9730900,-1.6296469 6.9831476,1.6157441 8.7185878,4.0337352 z "
         transform="scale(0.6) rotate(180) translate(0,0)" />
    </marker>
    <marker
       inkscape:stockid="Arrow1Lend"
       orient="auto"
       refY="0.0"
       refX="0.0"
       id="marker4499"
       style="overflow:visible;"
       inkscape:isstock="true">
      <path
         id="path4501"
         d="M 0.0,0.0 L 5.0,-5.0 L -12.5,0.0 L 5.0,5.0 L 0.0,0.0 z "
         style="fill-rule:evenodd;stroke:#ffffff;stroke-width:1pt;stroke-opacity:1;fill:#ffffff;fill-opacity:1"
         transform="scale(0.8) rotate(180) translate(12.5,0)" />
    </marker>
    <marker
       inkscape:stockid="TriangleInL"
       orient="auto"
       refY="0.0"
       refX="0.0"
       id="TriangleInL"
       style="overflow:visible"
       inkscape:isstock="true">
      <path
         id="path4294"
         d="M 5.77,0.0 L -2.88,5.0 L -2.88,-5.0 L 5.77,0.0 z "
         style="fill-rule:evenodd;stroke:#000000;stroke-width:1pt;stroke-opacity:1;fill:#000000;fill-opacity:1"
         transform="scale(-0.8)" />
    </marker>
    <marker
       inkscape:stockid="Arrow1Lend"
       orient="auto"
       refY="0.0"
       refX="0.0"
       id="Arrow1Lend"
       style="overflow:visible;"
       inkscape:isstock="true">
      <path
         id="path4164"
         d="M 0.0,0.0 L 5.0,-5.0 L -12.5,0.0 L 5.0,5.0 L 0.0,0.0 z "
         style="fill-rule:evenodd;stroke:#000000;stroke-width:1pt;stroke-opacity:1;fill:#000000;fill-opacity:1"
         transform="scale(0.8) rotate(180) translate(12.5,0)" />
    </marker>
  </defs>
  <sodipodi:namedview
     id="base"
     pagecolor="#7a817e"
     bordercolor="#666666"
     borderopacity="1.0"
     inkscape:pageopacity="0"
     inkscape:pageshadow="2"
     inkscape:zoom="2.8213561"
     inkscape:cx="187.12338"
     inkscape:cy="37.501713"
     inkscape:document-units="px"
     inkscape:current-layer="layer1"
     showgrid="false"
     units="px"
     inkscape:snap-bbox="true"
     inkscape:snap-bbox-midpoints="true"
     inkscape:snap-object-midpoints="true"
     showguides="true"
     inkscape:guide-bbox="true"
     inkscape:snap-intersection-paths="true"
     inkscape:snap-center="true"
     inkscape:window-width="1920"
     inkscape:window-height="964"
     inkscape:window-x="0"
     inkscape:window-y="1"
     inkscape:window-maximized="1" />
  <metadata
     id="metadata7">
    <rdf:RDF>
      <cc:Work
         rdf:about="">
        <dc:format>image/svg+xml</dc:format>
        <dc:type
           rdf:resource="http://purl.org/dc/dcmitype/StillImage" />
        <dc:title></dc:title>
      </cc:Work>
    </rdf:RDF>
  </metadata>
  <g
     inkscape:label="Layer 1"
     inkscape:groupmode="layer"
     id="layer1"
     transform="translate(0,-852.36223)">
    <path
       style="fill:#ffffff;fill-opacity:1;fill-rule:evenodd;stroke:none;stroke-width:0.22;stroke-linecap:butt;stroke-linejoin:miter;stroke-miterlimit:4;stroke-dasharray:none;stroke-opacity:1"
       d="m 49.999998,967.36225 a 34.999735,34.999729 0 0 0 -35,34.99995 34.999735,34.999729 0 0 0 35,35 34.999735,34.999729 0 0 0 35,-35 34.999735,34.999729 0 0 0 -35,-34.99995 z m -3.507673,6.25353 7.015346,0 0,30.72362 -20.415753,12.3645 -3.63373,-6.0014 17.034137,-10.3161 0,-26.77062 z"
       id="path3336"
       inkscape:connector-curvature="0" />
    <g
       id="g4226"
       transform="matrix(1.0144065,0,0,1.002311,5.021291e-5,-2.2876761)"
       style="fill:#ffffff">
      <path
         sodipodi:nodetypes="cccccccccc"
         inkscape:connector-curvature="0"
         id="path4216"
         d="m 119.26888,1028.792 c 18.09731,9.4685 40.53356,7.4577 53.52036,0.8861 1.43517,-4.1325 2.40341,-8.7319 2.6583,-14.0447 l -0.26583,0 c 7.9654,-24.37667 7.89307,-24.56396 11.07623,-35.93127 -12.69274,12.14769 -24.81085,52.45287 -38.81112,0.53166 -6.28419,26.96261 -15.07102,40.63911 -38.08075,-0.41894 3.16813,11.34208 7.54665,25.09685 9.03886,36.43885 l -0.37659,0.2216 c -0.28548,4.9443 0.35394,8.7788 1.24054,12.3167 z"
         style="fill:#ffffff;fill-rule:evenodd;stroke:none;stroke-width:1px;stroke-linecap:butt;stroke-linejoin:miter;stroke-opacity:1" />
      <circle
         r="6.5162907"
         cy="979.30457"
         cx="110.02505"
         id="path4218"
         style="fill:#ffffff;fill-opacity:1;stroke:none;stroke-width:10;stroke-miterlimit:4;stroke-dasharray:none" />
      <circle
         style="fill:#ffffff;fill-opacity:1;stroke:none;stroke-width:10;stroke-miterlimit:4;stroke-dasharray:none"
         id="circle4222"
         cx="185.71429"
         cy="979.05396"
         r="6.5162907" />
      <circle
         style="fill:#ffffff;fill-opacity:1;stroke:none;stroke-width:10;stroke-miterlimit:4;stroke-dasharray:none"
         id="circle4224"
         cx="147.74434"
         cy="978.55267"
         r="8.1453638" />
    </g>
    <path
       style="fill:#ffffff;fill-opacity:1;stroke:none;stroke-width:10;stroke-miterlimit:4;stroke-dasharray:none"
       d="m 150.00001,867.36227 a 34.999825,35.001041 0 0 0 -35,34.99877 34.999825,35.001041 0 0 0 35,35.0012 34.999825,35.001041 0 0 0 35,-35.0012 34.999825,35.001041 0 0 0 -35,-34.99877 z m 0.67458,7.76642 c 5.30893,0 9.59504,1.10809 12.85833,3.32428 4.43224,2.99552 6.64835,6.98953 6.64835,11.98205 0,2.07006 -0.57229,4.06708 -1.71688,5.99101 -1.14459,1.92395 -3.48247,4.27411 -7.01364,7.05041 -2.45965,1.9483 -4.01823,3.5191 -4.67576,4.7125 -0.63317,1.1689 -0.94976,2.7032 -0.94976,4.6028 l -13.88115,0 0,-1.3882 c 0,-2.3623 0.26787,-4.274 0.80364,-5.7353 0.53577,-1.4855 1.32723,-2.8372 2.37441,-4.0549 1.07152,-1.2176 3.45811,-3.36077 7.15975,-6.42934 1.97258,-1.60735 2.95888,-3.08075 2.95888,-4.42021 0,-1.33946 -0.40183,-2.37449 -1.20547,-3.10511 -0.7793,-0.75495 -1.97259,-1.13244 -3.57988,-1.13244 -1.72905,0 -3.16587,0.57232 -4.31046,1.71693 -1.12023,1.14463 -1.83864,3.14165 -2.15524,5.99103 l -14.17339,-1.75347 c 0.48706,-5.21171 2.37441,-9.40055 5.66206,-12.56653 3.31199,-3.19035 8.3774,-4.78551 15.19621,-4.78551 z m -9.2054,41.35265 14.86746,0 0,13.1145 -14.86746,0 0,-13.1145 z"
       id="path5248"
       inkscape:connector-curvature="0" />
    <g
       id="g4343"
       transform="matrix(0.69999993,0,0,0.69999993,15.000011,270.70874)">
      <circle
         r="17.499998"
         cy="869.86224"
         cx="82.5"
         id="path4335"
         style="fill:#ffffff;fill-opacity:1;stroke:none;stroke-width:4;stroke-miterlimit:4;stroke-dasharray:none" />
      <circle
         style="fill:#ffffff;fill-opacity:1;stroke:none;stroke-width:4;stroke-miterlimit:4;stroke-dasharray:none"
         id="circle4337"
         cx="17.499998"
         cy="902.36212"
         r="17.499998" />
      <circle
         r="17.499998"
         style="fill:#ffffff;fill-opacity:1;stroke:none;stroke-width:4;stroke-miterlimit:4;stroke-dasharray:none"
         id="circle4339"
         cx="82.5"
         cy="934.86224" />
      <path
         inkscape:connector-curvature="0"
         id="path4341"
         d="M 82.50001,869.86225 17.5,902.36213 l 65,32.50011"
         style="fill:none;fill-rule:evenodd;stroke:#ffffff;stroke-width:9.99999905;stroke-linecap:butt;stroke-linejoin:miter;stroke-miterlimit:4;stroke-dasharray:none;stroke-opacity:1" />
    </g>
    <path
       sodipodi:type="spiral"
       style="fill:none;fill-rule:evenodd;stroke:#ffffff;stroke-width:10.00593758;stroke-linecap:butt;stroke-linejoin:miter;stroke-miterlimit:4;stroke-dasharray:none;stroke-opacity:1;marker-start:url(#TriangleInS)"
       id="path4155"
       sodipodi:cx="337.06766"
       sodipodi:cy="914.56982"
       sodipodi:expansion="0"
       sodipodi:revolution="0.89999998"
       sodipodi:radius="32.458286"
       sodipodi:argument="-5.497787"
       sodipodi:t0="0"
       d="m 360.01913,937.5213 c -12.50242,12.50241 -33.40054,12.50241 -45.90295,0 -12.50241,-12.50242 -12.50241,-33.40054 1e-5,-45.90295 12.50241,-12.50241 33.40053,-12.50241 45.90295,0 7.28455,7.28456 10.71876,17.85398 9.10719,28.02907"
       transform="matrix(0.93581981,0,0,0.93722846,-65.487157,45.201287)" />
    <g
       id="g5959"
       transform="matrix(0.96512894,0,0,1.0097274,11.293211,-17.590859)">
      <path
         id="rect5939"
         transform="translate(0,852.36223)"
         d="M 225,153.11328 225,185 l 10.75977,0 0,-13.19922 10,0 0,13.19922 24.24023,0 0,-31.88672 -45,0 z m 30.4043,7.33594 10,0 0,10 -10,0 0,-10 z"
         style="fill:#ffffff;stroke:none;stroke-width:5;stroke-miterlimit:4;stroke-dasharray:none"
         inkscape:connector-curvature="0" />
      <path
         inkscape:connector-curvature="0"
         id="rect5949"
         d="m 225.99937,994.03108 -14.93248,17.39162 14.93248,0 14.93247,0 12.79926,0 14.93248,0 14.93247,0 -14.93247,-17.39162 -42.66421,0 z"
         style="fill:#ffffff;stroke:none;stroke-width:5;stroke-miterlimit:4;stroke-dasharray:none" />
      <rect
         y="982.89209"
         x="262.99411"
         height="22.329687"
         width="9.9243059"
         id="rect5956"
         style="fill:#ffffff;stroke:none;stroke-width:5;stroke-miterlimit:4;stroke-dasharray:none" />
    </g>
  </g>
</svg>
