<?xml version="1.0" encoding="UTF-8" standalone="no"?>
<!-- Created with Inkscape (http://www.inkscape.org/) -->

<svg
   xmlns:dc="http://purl.org/dc/elements/1.1/"
   xmlns:cc="http://creativecommons.org/ns#"
   xmlns:rdf="http://www.w3.org/1999/02/22-rdf-syntax-ns#"
   xmlns:svg="http://www.w3.org/2000/svg"
   xmlns="http://www.w3.org/2000/svg"
   xmlns:sodipodi="http://sodipodi.sourceforge.net/DTD/sodipodi-0.dtd"
   xmlns:inkscape="http://www.inkscape.org/namespaces/inkscape"
   width="200"
   height="100"
   viewBox="0 0 199.99999 99.999997"
   id="svg2"
   version="1.1"
   inkscape:version="0.91 r13725"
   sodipodi:docname="icons.svg">
  <defs
     id="defs4" />
  <sodipodi:namedview
     id="base"
     pagecolor="#7a817e"
     bordercolor="#666666"
     borderopacity="1.0"
     inkscape:pageopacity="0"
     inkscape:pageshadow="2"
     inkscape:zoom="3.99"
     inkscape:cx="127.955"
     inkscape:cy="48.793776"
     inkscape:document-units="px"
     inkscape:current-layer="layer1"
     showgrid="false"
     units="px"
     inkscape:snap-bbox="true"
     inkscape:snap-bbox-midpoints="true"
     inkscape:snap-object-midpoints="true"
     showguides="true"
     inkscape:guide-bbox="true"
     inkscape:snap-intersection-paths="true"
     inkscape:snap-center="true"
     inkscape:window-width="1920"
     inkscape:window-height="964"
     inkscape:window-x="0"
     inkscape:window-y="0"
     inkscape:window-maximized="1" />
  <metadata
     id="metadata7">
    <rdf:RDF>
      <cc:Work
         rdf:about="">
        <dc:format>image/svg+xml</dc:format>
        <dc:type
           rdf:resource="http://purl.org/dc/dcmitype/StillImage" />
        <dc:title></dc:title>
      </cc:Work>
    </rdf:RDF>
  </metadata>
  <g
     inkscape:label="Layer 1"
     inkscape:groupmode="layer"
     id="layer1"
     transform="translate(0,-952.36223)">
    <path
       style="fill:#ffffff;fill-opacity:1;fill-rule:evenodd;stroke:none;stroke-width:0.22;stroke-linecap:butt;stroke-linejoin:miter;stroke-miterlimit:4;stroke-dasharray:none;stroke-opacity:1"
       d="M 50,0.109375 A 49.890247,49.890247 0 0 0 0.109375,50 49.890247,49.890247 0 0 0 50,99.890625 49.890247,49.890247 0 0 0 99.890625,50 49.890247,49.890247 0 0 0 50,0.109375 Z m -5,8.9140625 10,0 0,43.7949215 -29.101562,17.625 L 20.71875,61.888672 45,47.183594 45,9.0234375 Z"
       transform="translate(0,952.36223)"
       id="path3336"
       inkscape:connector-curvature="0" />
    <g
       id="g4226"
       transform="matrix(1.0144065,0,0,1.002311,3.6830533e-5,-2.2876939)"
       style="fill:#ffffff">
      <path
         sodipodi:nodetypes="cccccccccc"
         inkscape:connector-curvature="0"
         id="path4216"
         d="m 119.26888,1028.792 c 18.09731,9.4685 40.53356,7.4577 53.52036,0.8861 1.43517,-4.1325 2.40341,-8.7319 2.6583,-14.0447 l -0.26583,0 c 7.9654,-24.37667 7.89307,-24.56396 11.07623,-35.93127 -12.69274,12.14769 -24.81085,52.45287 -38.81112,0.53166 -6.28419,26.96261 -15.07102,40.63911 -38.08075,-0.41894 3.16813,11.34208 7.54665,25.09685 9.03886,36.43885 l -0.37659,0.2216 c -0.28548,4.9443 0.35394,8.7788 1.24054,12.3167 z"
         style="fill:#ffffff;fill-rule:evenodd;stroke:none;stroke-width:1px;stroke-linecap:butt;stroke-linejoin:miter;stroke-opacity:1" />
      <circle
         r="6.5162907"
         cy="979.30457"
         cx="110.02505"
         id="path4218"
         style="fill:#ffffff;fill-opacity:1;stroke:none;stroke-width:10;stroke-miterlimit:4;stroke-dasharray:none" />
      <circle
         style="fill:#ffffff;fill-opacity:1;stroke:none;stroke-width:10;stroke-miterlimit:4;stroke-dasharray:none"
         id="circle4222"
         cx="185.71429"
         cy="979.05396"
         r="6.5162907" />
      <circle
         style="fill:#ffffff;fill-opacity:1;stroke:none;stroke-width:10;stroke-miterlimit:4;stroke-dasharray:none"
         id="circle4224"
         cx="147.74434"
         cy="978.55267"
         r="8.1453638" />
    </g>
  </g>
</svg>
