<?xml version="1.0" encoding="UTF-8" standalone="no"?>
<!-- Created with Inkscape (http://www.inkscape.org/) -->

<svg
   xmlns:dc="http://purl.org/dc/elements/1.1/"
   xmlns:cc="http://creativecommons.org/ns#"
   xmlns:rdf="http://www.w3.org/1999/02/22-rdf-syntax-ns#"
   xmlns:svg="http://www.w3.org/2000/svg"
   xmlns="http://www.w3.org/2000/svg"
   xmlns:sodipodi="http://sodipodi.sourceforge.net/DTD/sodipodi-0.dtd"
   xmlns:inkscape="http://www.inkscape.org/namespaces/inkscape"
   width="300"
   height="100"
   viewBox="0 0 299.99998 99.999997"
   id="svg2"
   version="1.1"
   inkscape:version="0.91 r13725"
   sodipodi:docname="icons.svg">
  <defs
     id="defs4" />
  <sodipodi:namedview
     id="base"
     pagecolor="#7a817e"
     bordercolor="#666666"
     borderopacity="1.0"
     inkscape:pageopacity="0"
     inkscape:pageshadow="2"
     inkscape:zoom="3.99"
     inkscape:cx="176.85026"
     inkscape:cy="48.793776"
     inkscape:document-units="px"
     inkscape:current-layer="layer1"
     showgrid="false"
     units="px"
     inkscape:snap-bbox="true"
     inkscape:snap-bbox-midpoints="true"
     inkscape:snap-object-midpoints="true"
     showguides="true"
     inkscape:guide-bbox="true"
     inkscape:snap-intersection-paths="true"
     inkscape:snap-center="true"
     inkscape:window-width="1920"
     inkscape:window-height="964"
     inkscape:window-x="0"
     inkscape:window-y="0"
     inkscape:window-maximized="1" />
  <metadata
     id="metadata7">
    <rdf:RDF>
      <cc:Work
         rdf:about="">
        <dc:format>image/svg+xml</dc:format>
        <dc:type
           rdf:resource="http://purl.org/dc/dcmitype/StillImage" />
        <dc:title></dc:title>
      </cc:Work>
    </rdf:RDF>
  </metadata>
  <g
     inkscape:label="Layer 1"
     inkscape:groupmode="layer"
     id="layer1"
     transform="translate(0,-952.36223)">
    <path
       style="fill:#ffffff;fill-opacity:1;fill-rule:evenodd;stroke:none;stroke-width:0.22;stroke-linecap:butt;stroke-linejoin:miter;stroke-miterlimit:4;stroke-dasharray:none;stroke-opacity:1"
       d="m 49.999985,967.36223 a 34.999735,34.999729 0 0 0 -35,34.99997 34.999735,34.999729 0 0 0 35,35 34.999735,34.999729 0 0 0 35,-35 34.999735,34.999729 0 0 0 -35,-34.99997 z m -3.507673,6.25353 7.015346,0 0,30.72364 -20.415753,12.3645 -3.63373,-6.0014 17.034137,-10.3161 0,-26.77064 z"
       id="path3336"
       inkscape:connector-curvature="0" />
    <g
       id="g4226"
       transform="matrix(1.0144065,0,0,1.002311,3.6830533e-5,-2.2876939)"
       style="fill:#ffffff">
      <path
         sodipodi:nodetypes="cccccccccc"
         inkscape:connector-curvature="0"
         id="path4216"
         d="m 119.26888,1028.792 c 18.09731,9.4685 40.53356,7.4577 53.52036,0.8861 1.43517,-4.1325 2.40341,-8.7319 2.6583,-14.0447 l -0.26583,0 c 7.9654,-24.37667 7.89307,-24.56396 11.07623,-35.93127 -12.69274,12.14769 -24.81085,52.45287 -38.81112,0.53166 -6.28419,26.96261 -15.07102,40.63911 -38.08075,-0.41894 3.16813,11.34208 7.54665,25.09685 9.03886,36.43885 l -0.37659,0.2216 c -0.28548,4.9443 0.35394,8.7788 1.24054,12.3167 z"
         style="fill:#ffffff;fill-rule:evenodd;stroke:none;stroke-width:1px;stroke-linecap:butt;stroke-linejoin:miter;stroke-opacity:1" />
      <circle
         r="6.5162907"
         cy="979.30457"
         cx="110.02505"
         id="path4218"
         style="fill:#ffffff;fill-opacity:1;stroke:none;stroke-width:10;stroke-miterlimit:4;stroke-dasharray:none" />
      <circle
         style="fill:#ffffff;fill-opacity:1;stroke:none;stroke-width:10;stroke-miterlimit:4;stroke-dasharray:none"
         id="circle4222"
         cx="185.71429"
         cy="979.05396"
         r="6.5162907" />
      <circle
         style="fill:#ffffff;fill-opacity:1;stroke:none;stroke-width:10;stroke-miterlimit:4;stroke-dasharray:none"
         id="circle4224"
         cx="147.74434"
         cy="978.55267"
         r="8.1453638" />
    </g>
    <path
       style="fill:#ffffff;fill-opacity:1;stroke:none;stroke-width:10;stroke-miterlimit:4;stroke-dasharray:none"
       d="m 249.99998,967.36223 a 34.999825,35.001041 0 0 0 -35,34.99877 34.999825,35.001041 0 0 0 35,35.0012 34.999825,35.001041 0 0 0 35,-35.0012 34.999825,35.001041 0 0 0 -35,-34.99877 z m 0.67458,7.76642 c 5.30893,0 9.59504,1.10809 12.85833,3.32428 4.43224,2.99552 6.64835,6.98953 6.64835,11.98205 0,2.07006 -0.57229,4.06708 -1.71688,5.99101 -1.14459,1.92395 -3.48247,4.27411 -7.01364,7.05041 -2.45965,1.9483 -4.01823,3.5191 -4.67576,4.7125 -0.63317,1.1689 -0.94976,2.7032 -0.94976,4.6028 l -13.88115,0 0,-1.3882 c 0,-2.3623 0.26787,-4.274 0.80364,-5.7353 0.53577,-1.4855 1.32723,-2.8372 2.37441,-4.0549 1.07152,-1.2176 3.45811,-3.36077 7.15975,-6.42934 1.97258,-1.60735 2.95888,-3.08075 2.95888,-4.42021 0,-1.33946 -0.40183,-2.37449 -1.20547,-3.10511 -0.7793,-0.75495 -1.97259,-1.13244 -3.57988,-1.13244 -1.72905,0 -3.16587,0.57232 -4.31046,1.71693 -1.12023,1.14463 -1.83864,3.14165 -2.15524,5.99103 l -14.17339,-1.75347 c 0.48706,-5.21171 2.37441,-9.40055 5.66206,-12.56653 3.31199,-3.19035 8.3774,-4.78551 15.19621,-4.78551 z m -9.2054,41.35265 14.86746,0 0,13.1145 -14.86746,0 0,-13.1145 z"
       id="path5248"
       inkscape:connector-curvature="0" />
  </g>
</svg>
